<svg xmlns="http://www.w3.org/2000/svg" width="62.319" height="62.319" viewBox="0 0 62.319 62.319">
  <g id="Group_11135" data-name="Group 11135" transform="translate(-179 -221.801)">
    <path id="Icon_awesome-user-circle" data-name="Icon awesome-user-circle" d="M31.159.563A31.159,31.159,0,1,0,62.319,31.722,31.154,31.154,0,0,0,31.159.563Zm0,12.062A11.057,11.057,0,1,1,20.1,23.681,11.057,11.057,0,0,1,31.159,12.624Zm0,43.221a24.077,24.077,0,0,1-18.407-8.569,14.008,14.008,0,0,1,12.376-7.513,3.074,3.074,0,0,1,.892.138,16.635,16.635,0,0,0,5.139.867A16.572,16.572,0,0,0,36.3,39.9a3.074,3.074,0,0,1,.892-.138,14.008,14.008,0,0,1,12.376,7.513A24.077,24.077,0,0,1,31.159,55.845Z" transform="translate(179 221.239)" opacity="0.41"/>
    <g id="Icon_feather-plus" data-name="Icon feather-plus" transform="translate(216.5 238.421)">
      <path id="Path_434" data-name="Path 434" d="M18,7.5V20.38" transform="translate(-4.06)" fill="none" stroke="#fff" stroke-linecap="round" stroke-linejoin="round" stroke-width="3"/>
      <path id="Path_435" data-name="Path 435" d="M7.5,18H20.38" transform="translate(0 -4.06)" fill="none" stroke="#fff" stroke-linecap="round" stroke-linejoin="round" stroke-width="3"/>
    </g>
  </g>
</svg>
